<?xml version="1.0" encoding="UTF-8"?>
<!DOCTYPE svg PUBLIC "-//W3C//DTD SVG 1.1//EN" "http://www.w3.org/Graphics/SVG/1.1/DTD/svg11.dtd">
<svg xmlns="http://www.w3.org/2000/svg" version="1.1" width="1265px" height="280px" style="shape-rendering:geometricPrecision; text-rendering:geometricPrecision; image-rendering:optimizeQuality; fill-rule:evenodd; clip-rule:evenodd" xmlns:xlink="http://www.w3.org/1999/xlink">
<g><path style="opacity:0.481" fill="#7f7db9" d="M 132.5,27.5 C 138.319,26.3475 144.319,26.1808 150.5,27C 148.75,28.3186 146.75,28.8186 144.5,28.5C 140.702,27.5166 136.702,27.1832 132.5,27.5 Z"/></g>
<g><path style="opacity:1" fill="#271f90" d="M 132.5,27.5 C 136.702,27.1832 140.702,27.5166 144.5,28.5C 129.803,30.5019 116.803,36.1686 105.5,45.5C 105.34,43.8008 105.506,42.1341 106,40.5C 109.06,41.6018 109.893,40.6018 108.5,37.5C 111.096,35.7028 110.763,34.3695 107.5,33.5C 105.929,34.3094 104.262,34.6427 102.5,34.5C 111.876,29.9911 121.876,27.6577 132.5,27.5 Z"/></g>
<g><path style="opacity:0.998" fill="#1a168d" d="M 105.5,45.5 C 101.14,50.532 97.1397,55.8653 93.5,61.5C 89.7684,54.1292 83.7684,49.9625 75.5,49C 83.4483,42.2208 92.4483,37.3874 102.5,34.5C 104.262,34.6427 105.929,34.3094 107.5,33.5C 110.763,34.3695 111.096,35.7028 108.5,37.5C 109.893,40.6018 109.06,41.6018 106,40.5C 105.506,42.1341 105.34,43.8008 105.5,45.5 Z"/></g>
<g><path style="opacity:1" fill="#080e8c" d="M 244.5,189.5 C 243.833,187.167 243.167,184.833 242.5,182.5C 242.068,160.786 232.734,144.286 214.5,133C 209.167,130.333 203.833,127.667 198.5,125C 183.547,120.178 168.547,115.512 153.5,111C 141.412,106.544 130.912,99.7104 122,90.5C 112.361,71.2213 116.194,55.0547 133.5,42C 158.619,31.0752 181.952,34.0752 203.5,51C 214.64,60.1362 222.64,71.4696 227.5,85C 232.202,85.1717 236.868,85.6717 241.5,86.5C 258.538,120.429 259.538,154.762 244.5,189.5 Z"/></g>
<g><path style="opacity:0.478" fill="#6a6eb1" d="M 1104.5,78.5 C 1101.06,78.2529 1097.73,78.5863 1094.5,79.5C 1095.69,78.2227 1097.36,77.5561 1099.5,77.5C 1101.37,77.5068 1103.04,77.8401 1104.5,78.5 Z"/></g>
<g><path style="opacity:1" fill="#0e118c" d="M 85.5,87.5 C 86.1667,89.8333 86.8333,92.1667 87.5,94.5C 87.6458,98.5191 87.9791,102.519 88.5,106.5C 76.8538,107.498 65.1872,108.165 53.5,108.5C 53.6667,142.835 53.5,177.168 53,211.5C 30.3173,181.083 23.6506,147.417 33,110.5C 36.9652,95.567 43.7985,82.2337 53.5,70.5C 57.8017,88.3162 68.4684,93.9829 85.5,87.5 Z"/></g>
<g><path style="opacity:0.694" fill="#625eab" d="M 751.5,77.5 C 754.5,77.5 757.5,77.5 760.5,77.5C 760.5,120.167 760.5,162.833 760.5,205.5C 757.5,205.5 754.5,205.5 751.5,205.5C 751.5,162.833 751.5,120.167 751.5,77.5 Z"/></g>
<g><path style="opacity:1" fill="#000a8a" d="M 752.5,78.5 C 754.833,78.5 757.167,78.5 759.5,78.5C 759.5,120.5 759.5,162.5 759.5,204.5C 757.167,204.5 754.833,204.5 752.5,204.5C 752.5,162.5 752.5,120.5 752.5,78.5 Z"/></g>
<g><path style="opacity:0.173" fill="#b0afd5" d="M 782.5,78.5 C 782.5,120.5 782.5,162.5 782.5,204.5C 785.167,204.5 787.833,204.5 790.5,204.5C 787.713,205.477 784.713,205.81 781.5,205.5C 781.168,162.997 781.501,120.663 782.5,78.5 Z"/></g>
<g><path style="opacity:1" fill="#040c8a" d="M 794.5,81.5 C 795.227,83.7166 795.06,86.0499 794,88.5C 792.791,88.6526 791.625,88.9859 790.5,89.5C 790.5,127.833 790.5,166.167 790.5,204.5C 787.833,204.5 785.167,204.5 782.5,204.5C 782.5,162.5 782.5,120.5 782.5,78.5C 785.64,77.3592 788.973,77.1925 792.5,78C 793.823,78.8159 794.489,79.9826 794.5,81.5 Z"/></g>
<g><path style="opacity:0.725" fill="#2b3695" d="M 910.5,78.5 C 908.167,78.5 905.833,78.5 903.5,78.5C 903.832,120.337 903.499,162.003 902.5,203.5C 902.5,161.5 902.5,119.5 902.5,77.5C 905.385,77.1936 908.052,77.5269 910.5,78.5 Z"/></g>
<g><path style="opacity:1" fill="#010b8a" d="M 910.5,78.5 C 910.5,120.5 910.5,162.5 910.5,204.5C 907.833,204.5 905.167,204.5 902.5,204.5C 902.5,204.167 902.5,203.833 902.5,203.5C 903.499,162.003 903.832,120.337 903.5,78.5C 905.833,78.5 908.167,78.5 910.5,78.5 Z"/></g>
<g><path style="opacity:0.173" fill="#b1afd5" d="M 910.5,78.5 C 911.499,120.663 911.832,162.997 911.5,205.5C 908.287,205.81 905.287,205.477 902.5,204.5C 905.167,204.5 907.833,204.5 910.5,204.5C 910.5,162.5 910.5,120.5 910.5,78.5 Z"/></g>
<g><path style="opacity:0.506" fill="#6167a8" d="M 1171.5,197.5 C 1195.5,197.5 1219.5,197.5 1243.5,197.5C 1243.5,200.167 1243.5,202.833 1243.5,205.5C 1216.5,205.5 1189.5,205.5 1162.5,205.5C 1162.5,162.833 1162.5,120.167 1162.5,77.5C 1165.5,77.5 1168.5,77.5 1171.5,77.5C 1171.5,117.5 1171.5,157.5 1171.5,197.5 Z"/></g>
<g><path style="opacity:0.173" fill="#b4b4cf" d="M 85.5,87.5 C 85.56,86.9569 85.8933,86.6236 86.5,86.5C 87.48,89.0865 87.8134,91.7531 87.5,94.5C 86.8333,92.1667 86.1667,89.8333 85.5,87.5 Z"/></g>
<g><path style="opacity:1" fill="#1c178e" d="M 350.5,79.5 C 356.958,80.4065 359.458,84.0732 358,90.5C 353.571,95.8084 349.237,95.8084 345,90.5C 343.185,84.855 345.018,81.1883 350.5,79.5 Z"/></g>
<g><path style="opacity:1" fill="#4b409a" d="M 641.5,103.5 C 643.898,107.403 645.231,111.736 645.5,116.5C 642.5,116.5 639.5,116.5 636.5,116.5C 636.483,114.435 636.15,112.435 635.5,110.5C 637.213,111.635 637.88,113.302 637.5,115.5C 639.5,115.5 641.5,115.5 643.5,115.5C 642.833,111.5 642.167,107.5 641.5,103.5 Z"/></g>
<g><path style="opacity:0.494" fill="#6266aa" d="M 348.5,113.5 C 348.5,143.833 348.5,174.167 348.5,204.5C 350.5,204.5 352.5,204.5 354.5,204.5C 354.5,174.167 354.5,143.833 354.5,113.5C 355.498,143.995 355.831,174.662 355.5,205.5C 352.833,205.5 350.167,205.5 347.5,205.5C 347.169,174.662 347.502,143.995 348.5,113.5 Z"/></g>
<g><path style="opacity:1" fill="#020a8b" d="M 348.5,113.5 C 350.5,113.5 352.5,113.5 354.5,113.5C 354.5,143.833 354.5,174.167 354.5,204.5C 352.5,204.5 350.5,204.5 348.5,204.5C 348.5,174.167 348.5,143.833 348.5,113.5 Z"/></g>
<g><path style="opacity:1" fill="#1e198d" d="M 794.5,81.5 C 820.191,117.868 845.524,154.535 870.5,191.5C 868.83,191.249 867.33,190.582 866,189.5C 865.383,190.449 865.549,191.282 866.5,192C 865.027,192.71 864.36,193.876 864.5,195.5C 839.833,160.167 815.167,124.833 790.5,89.5C 791.625,88.9859 792.791,88.6526 794,88.5C 795.06,86.0499 795.227,83.7166 794.5,81.5 Z"/></g>
<g><path style="opacity:1" fill="#1f198e" d="M 460.5,114.5 C 460.932,111.123 460.265,108.123 458.5,105.5C 451.296,89.2157 438.63,81.5491 420.5,82.5C 407.783,81.7842 397.283,86.1175 389,95.5C 381.172,114.676 387.338,126.843 407.5,132C 422.393,134.778 437.06,138.445 451.5,143C 471.102,152.853 476.602,168.02 468,188.5C 459.897,199.977 448.731,206.477 434.5,208C 419.834,209.477 405.834,207.144 392.5,201C 380.423,194.02 374.089,183.52 373.5,169.5C 373.5,167.5 373.5,165.5 373.5,163.5C 376.167,163.5 378.833,163.5 381.5,163.5C 381.423,183.26 391.09,195.093 410.5,199C 422.368,201.47 434.034,200.804 445.5,197C 459.271,190.962 464.771,180.462 462,165.5C 460.657,161.49 458.491,157.99 455.5,155C 450.002,151.252 444.002,148.585 437.5,147C 424.74,144.381 412.073,141.381 399.5,138C 376.508,128.545 370.674,112.712 382,90.5C 392.111,79.3449 404.777,74.0116 420,74.5C 432.988,74.3686 444.821,77.8686 455.5,85C 464.181,92.8636 468.515,102.697 468.5,114.5C 465.833,114.5 463.167,114.5 460.5,114.5 Z"/></g>
<g><path style="opacity:0.522" fill="#5452a0" d="M 458.5,105.5 C 460.265,108.123 460.932,111.123 460.5,114.5C 459.525,111.689 458.858,108.689 458.5,105.5 Z"/></g>
<g><path style="opacity:1" fill="#090f8c" d="M 96.5,123.5 C 106.778,134.648 119.111,142.815 133.5,148C 147.379,152.071 161.046,156.737 174.5,162C 185.5,166.75 195,173.583 203,182.5C 211.849,196.886 212.849,211.886 206,227.5C 199.802,238.354 190.636,245.52 178.5,249C 150.575,255.408 127.408,247.908 109,226.5C 103.568,217.874 99.9017,208.54 98,198.5C 96.5584,173.538 96.0584,148.538 96.5,123.5 Z"/></g>
<g><path style="opacity:1" fill="#19168d" d="M 1104.5,78.5 C 1121.42,119.937 1137.76,161.603 1153.5,203.5C 1151.05,204.473 1148.39,204.806 1145.5,204.5C 1139.94,191.703 1134.61,178.703 1129.5,165.5C 1109.51,164.334 1089.51,164.167 1069.5,165C 1064.26,178.219 1058.93,191.385 1053.5,204.5C 1050.81,204.664 1048.15,204.497 1045.5,204C 1046.38,202.644 1046.71,201.144 1046.5,199.5C 1062.31,159.415 1078.31,119.415 1094.5,79.5C 1097.73,78.5863 1101.06,78.2529 1104.5,78.5 Z M 1081.5,133.5 C 1081.5,133.167 1081.5,132.833 1081.5,132.5C 1087.74,117.64 1093.91,102.64 1100,87.5C 1108.74,110.539 1117.57,133.539 1126.5,156.5C 1108.5,157.833 1090.5,157.833 1072.5,156.5C 1075.7,148.888 1078.7,141.222 1081.5,133.5 Z"/></g>
<g><path style="opacity:1" fill="#020b8c" d="M 1081.5,132.5 C 1081.5,132.833 1081.5,133.167 1081.5,133.5C 1078.82,134.376 1077.15,133.209 1076.5,130C 1078.15,126.86 1079.48,123.36 1080.5,119.5C 1082.1,118.835 1083.6,118.501 1085,118.5C 1083.24,122.871 1082.07,127.538 1081.5,132.5 Z"/></g>
<g><path style="opacity:0.494" fill="#8382b6" d="M 381.5,163.5 C 378.833,163.5 376.167,163.5 373.5,163.5C 373.5,165.5 373.5,167.5 373.5,169.5C 372.532,167.393 372.198,165.059 372.5,162.5C 375.713,162.19 378.713,162.523 381.5,163.5 Z"/></g>
<g><path style="opacity:0.478" fill="#626aad" d="M 242.5,182.5 C 243.167,184.833 243.833,187.167 244.5,189.5C 244.013,190.473 243.513,191.473 243,192.5C 242.502,189.183 242.335,185.85 242.5,182.5 Z"/></g>
<g><path style="opacity:1" fill="#1e198e" d="M 963.5,194.5 C 963.414,195.496 963.748,196.329 964.5,197C 967.28,197.37 969.28,198.37 970.5,200C 977.972,201.471 985.306,201.637 992.5,200.5C 1016.45,195.549 1030.11,180.882 1033.5,156.5C 1036.45,155.345 1039.45,155.179 1042.5,156C 1034.87,196.306 1010.87,212.972 970.5,206C 946.945,197.761 933.112,181.261 929,156.5C 925.673,137.119 928.673,118.786 938,101.5C 953.9,79.3026 975.4,70.8026 1002.5,76C 1023.75,81.4156 1036.08,94.9156 1039.5,116.5C 1036.81,116.664 1034.15,116.497 1031.5,116C 1025.49,94.3112 1011.16,83.1446 988.5,82.5C 957.822,85.008 940.656,101.675 937,132.5C 934.328,154.342 940.495,173.175 955.5,189C 958.047,191.054 960.714,192.887 963.5,194.5 Z"/></g>
<g><path style="opacity:0.998" fill="#0b0f8a" d="M 864.5,195.5 C 864.36,193.876 865.027,192.71 866.5,192C 865.549,191.282 865.383,190.449 866,189.5C 867.33,190.582 868.83,191.249 870.5,191.5C 871.117,191.611 871.617,191.944 872,192.5C 872.5,154.168 872.667,115.835 872.5,77.5C 875.167,77.5 877.833,77.5 880.5,77.5C 880.5,120.167 880.5,162.833 880.5,205.5C 877.102,205.82 873.768,205.487 870.5,204.5C 868.242,201.643 866.242,198.643 864.5,195.5 Z"/></g>
<g><path style="opacity:1" fill="#3e3896" d="M 963.5,194.5 C 972.54,199.308 982.206,201.308 992.5,200.5C 985.306,201.637 977.972,201.471 970.5,200C 969.28,198.37 967.28,197.37 964.5,197C 963.748,196.329 963.414,195.496 963.5,194.5 Z"/></g>
<g><path style="opacity:1" fill="#1d188e" d="M 641.5,103.5 C 642.167,107.5 642.833,111.5 643.5,115.5C 641.5,115.5 639.5,115.5 637.5,115.5C 637.88,113.302 637.213,111.635 635.5,110.5C 628.167,91.8928 614.334,82.5595 594,82.5C 564.511,84.983 547.511,100.983 543,130.5C 539.59,153.733 546.09,173.567 562.5,190C 583.768,204.627 604.435,203.96 624.5,188C 633.143,178.912 637.81,168.079 638.5,155.5C 641.5,155.5 644.5,155.5 647.5,155.5C 645.332,178.817 633.666,195.317 612.5,205C 575.941,214.305 550.775,201.471 537,166.5C 529.694,140.961 533.361,117.294 548,95.5C 565.726,76.6891 587.226,70.5224 612.5,77C 626.44,81.2805 636.107,90.1138 641.5,103.5 Z"/></g>
<g><path style="opacity:1" fill="#18168c" d="M 663.5,77.5 C 666.167,77.5 668.833,77.5 671.5,77.5C 671.5,117.5 671.5,157.5 671.5,197.5C 695.5,197.5 719.5,197.5 743.5,197.5C 743.5,200.167 743.5,202.833 743.5,205.5C 716.833,205.5 690.167,205.5 663.5,205.5C 663.5,162.833 663.5,120.167 663.5,77.5 Z"/></g>
<g><path style="opacity:1" fill="#010b8a" d="M 1171.5,197.5 C 1194.99,198.498 1218.66,198.831 1242.5,198.5C 1242.5,200.5 1242.5,202.5 1242.5,204.5C 1216.17,204.5 1189.83,204.5 1163.5,204.5C 1163.5,162.5 1163.5,120.5 1163.5,78.5C 1165.83,78.5 1168.17,78.5 1170.5,78.5C 1170.17,118.337 1170.5,158.004 1171.5,197.5 Z"/></g>
<g><path style="opacity:0.671" fill="#5d5ba3" d="M 1046.5,199.5 C 1046.71,201.144 1046.38,202.644 1045.5,204C 1048.15,204.497 1050.81,204.664 1053.5,204.5C 1050.71,205.477 1047.71,205.81 1044.5,205.5C 1044.59,203.214 1045.26,201.214 1046.5,199.5 Z"/></g>
<g><path style="opacity:0.506" fill="#6a70af" d="M 1153.5,203.5 C 1154.04,203.56 1154.38,203.893 1154.5,204.5C 1151.36,205.803 1148.36,205.803 1145.5,204.5C 1148.39,204.806 1151.05,204.473 1153.5,203.5 Z"/></g>
</svg>
